HIERARCHY
ROOT Hips
{
 OFFSET 0.000000 0.000000 0.000000
 CHANNELS 6 Xposition Yposition Zposition Yrotation Xrotation Zrotation
 JOINT Chest
 {
  OFFSET 0.000000 9.585900 0.002600
  CHANNELS 3 Yrotation Xrotation Zrotation
  JOINT Chest2
  {
   OFFSET 0.000000 9.601200 -0.005300
   CHANNELS 3 Yrotation Xrotation Zrotation
   JOINT Chest3
   {
    OFFSET 0.000000 9.561800 0.000000
    CHANNELS 3 Yrotation Xrotation Zrotation
    JOINT Chest4
    {
     OFFSET 0.000000 9.552100 0.000000
     CHANNELS 3 Yrotation Xrotation Zrotation
     JOINT Neck
     {
      OFFSET 0.000000 14.453000 0.000000
      CHANNELS 3 Yrotation Xrotation Zrotation
      JOINT Head
      {
       OFFSET 0.000000 8.936500 -0.011300
       CHANNELS 3 Yrotation Xrotation Zrotation
       End Site
       {
        OFFSET 0.000000 17.073600 -0.006000
       }
      }
     }
     JOINT RightCollar
     {
      OFFSET -2.921100 9.558500 0.000000
      CHANNELS 3 Yrotation Xrotation Zrotation
      JOINT RightShoulder
      {
       OFFSET -13.519700 0.000000 0.000000
       CHANNELS 3 Yrotation Xrotation Zrotation
       JOINT RightElbow
       {
        OFFSET 0.000000 -29.696600 0.000000
        CHANNELS 3 Yrotation Xrotation Zrotation
        JOINT RightWrist
        {
         OFFSET 0.000000 -24.004700 0.000000
         CHANNELS 3 Yrotation Xrotation Zrotation
         End Site
         {
          OFFSET 0.000000 -17.728500 0.000000
         }
        }
       }
      }
     }
     JOINT LeftCollar
     {
      OFFSET 2.921100 9.558500 0.000000
      CHANNELS 3 Yrotation Xrotation Zrotation
      JOINT LeftShoulder
      {
       OFFSET 13.519700 0.000000 0.000000
       CHANNELS 3 Yrotation Xrotation Zrotation
       JOINT LeftElbow
       {
        OFFSET 0.000000 -29.696600 0.000000
        CHANNELS 3 Yrotation Xrotation Zrotation
        JOINT LeftWrist
        {
         OFFSET 0.000000 -24.004700 0.000000
         CHANNELS 3 Yrotation Xrotation Zrotation
         End Site
         {
          OFFSET 0.000000 -17.728500 0.000000
         }
        }
       }
      }
     }
    }
   }
  }
 }
 JOINT RightHip
 {
  OFFSET -7.771700 -0.012900 -0.001300
  CHANNELS 3 Yrotation Xrotation Zrotation
  JOINT RightKnee
  {
   OFFSET 0.000000 -40.869800 0.001200
   CHANNELS 3 Yrotation Xrotation Zrotation
   JOINT RightAnkle
   {
    OFFSET 0.000000 -39.717900 0.002100
    CHANNELS 3 Yrotation Xrotation Zrotation
    JOINT RightToe
    {
     OFFSET 0.000000 -4.965400 11.033500
     CHANNELS 3 Yrotation Xrotation Zrotation
     End Site
     {
      OFFSET 0.000000 -1.423100 5.872300
     }
    }
   }
  }
 }
 JOINT LeftHip
 {
  OFFSET 7.771700 -0.012900 -0.001300
  CHANNELS 3 Yrotation Xrotation Zrotation
  JOINT LeftKnee
  {
   OFFSET 0.000000 -40.869800 0.001200
   CHANNELS 3 Yrotation Xrotation Zrotation
   JOINT LeftAnkle
   {
    OFFSET 0.000000 -39.717900 0.002100
    CHANNELS 3 Yrotation Xrotation Zrotation
    JOINT LeftToe
    {
     OFFSET 0.000000 -4.965400 11.033500
     CHANNELS 3 Yrotation Xrotation Zrotation
     End Site
     {
      OFFSET 0.000000 -1.423100 5.872300
     }
    }
   }
  }
 }
}
MOTION
Frames: 7
Frame Time: 0.008333
0.000000 85.388000 0.000000 0.000000 -5.767877 0.000000 0.000000 11.653817 0.000000 0.000000 -5.885947 0.000000 0.000000 -0.000000 0.000000 0.000000 -0.000000 0.000000 0.000000 12.528835 0.000000 0.000000 0.711642 0.000000 0.000000 -0.000000 0.000000 0.000000 0.000000 -90.000000 0.000000 -2.309062 0.000000 0.000000 2.309062 0.000000 0.000000 -0.000000 0.000000 0.000000 -0.000000 90.000000 0.000000 -2.309062 0.000000 0.000000 2.309062 0.000000 0.000000 8.520406 0.000000 0.000000 1.905762 0.000000 -0.000000 -4.658285 0.000000 0.000000 -0.000000 0.000000 0.000000 8.520406 0.000000 0.000000 1.905762 0.000000 -0.000000 -4.658285 0.000000 0.000000 -0.000000 0.000000
12.386381 52.227356 41.286086 171.423639 -39.676069 -1.953036 3.884264 23.044786 1.798395 0.463465 3.401721 0.372239 0.759718 5.486837 0.615083 3.035668 19.364223 2.586428 -2.542914 12.334161 -2.306794 -3.732659 -12.919062 -3.371307 -4.072839 -2.150818 -2.749250 0.644837 -11.704803 3.166050 -73.529980 -66.866330 86.896402 -3.400293 -0.722932 -3.969090 -4.809691 -0.023636 -0.335633 2.828446 -10.592843 -2.886593 87.025074 -75.511516 -105.807705 -4.557068 -4.783776 17.392191 -2.645237 -42.106198 2.918044 124.724440 85.259031 128.084698 -2.694588 -9.565210 -1.431465 0.524027 -1.086458 0.247474 1.117167 -38.053464 5.808026 70.183915 82.093658 60.226220 -6.552708 -11.666444 8.947696 0.663735 1.505986 0.289895
12.386629 52.228477 41.283583 171.423719 -39.643453 -1.949682 3.903000 23.012796 1.798784 0.465376 3.387757 0.370314 0.762962 5.465617 0.612143 3.061258 19.315669 2.578746 -2.431193 12.383583 -2.282528 -3.592203 -12.834149 -3.360249 -4.056499 -2.178170 -2.712608 0.651713 -11.773031 3.145917 -73.379026 -67.039470 86.579855 -3.334098 -0.662874 -4.350775 -4.815079 -0.033130 -0.357833 2.796823 -10.775035 -2.877842 86.157947 -75.608194 -104.755972 -4.563561 -4.722703 17.348329 -2.639361 -42.135208 2.914494 124.730125 85.260080 128.092191 -2.695795 -9.572947 -1.434728 0.525968 -1.083124 0.250564 1.116954 -38.083944 5.800553 70.178729 82.091926 60.224621 -6.563974 -11.665492 8.956046 0.664926 1.506594 0.281379
12.387083 52.229916 41.280005 171.427627 -39.608333 -1.946722 3.920773 22.979957 1.796995 0.467486 3.373353 0.368160 0.766438 5.443622 0.608806 3.078894 19.281237 2.573405 -2.284553 12.417790 -2.249870 -3.416919 -12.750909 -3.336526 -4.030224 -2.222407 -2.682054 0.655483 -11.838654 3.127414 -73.226605 -67.186082 86.270809 -3.272381 -0.591940 -4.700443 -4.812546 -0.050687 -0.385557 2.778746 -10.983340 -2.864933 85.211173 -75.737689 -103.613696 -4.574998 -4.641905 17.274027 -2.634436 -42.166159 2.910074 124.745263 85.259686 128.107739 -2.700451 -9.583345 -1.435340 0.532062 -1.081336 0.249545 1.115501 -38.116498 5.789277 70.170350 82.090484 60.218858 -6.561297 -11.664868 8.957971 0.657384 1.505151 0.278144
12.391813 52.233150 41.274258 171.395561 -39.586918 -1.941073 3.970487 22.958701 1.816434 0.477726 3.360852 0.364917 0.760883 5.428958 0.608553 3.105324 19.240076 2.563817 -2.141005 12.448608 -2.202503 -3.163597 -12.692359 -3.306012 -4.017907 -2.247751 -2.654282 0.661819 -11.928340 3.111709 -73.067033 -67.287648 85.962801 -3.226686 -0.524724 -4.993465 -4.817672 -0.045350 -0.404444 2.780078 -11.240141 -2.858803 84.136344 -75.898968 -102.343069 -4.602063 -4.547331 17.191392 -2.621340 -42.187321 2.933253 124.811510 85.249016 128.170486 -2.673016 -9.600926 -1.420680 0.498415 -1.075022 0.233239 1.103509 -38.136791 5.807751 70.209929 82.086799 60.254308 -6.503797 -11.642728 8.953826 0.611639 1.472402 0.264784
12.392313 52.232822 41.271129 171.393345 -39.531310 -1.927848 3.996636 22.908557 1.807220 0.462973 3.350843 0.366747 0.753529 5.425333 0.609997 3.135118 19.200838 2.551249 -1.959097 12.450285 -2.148939 -2.862231 -12.658711 -3.255629 -3.996187 -2.290571 -2.635968 0.656977 -12.021622 3.096881 -72.889439 -67.338585 85.644004 -3.200402 -0.472883 -5.215146 -4.806883 -0.053600 -0.432161 2.780041 -11.525501 -2.845407 82.933489 -76.093444 -100.936852 -4.645471 -4.434610 17.105905 -2.611608 -42.243654 2.920345 124.846008 85.241964 128.207146 -2.677457 -9.608536 -1.424476 0.499856 -1.074365 0.235558 1.097832 -38.189099 5.793268 70.229277 82.081316 60.264820 -6.487909 -11.648266 8.953349 0.595779 1.475245 0.262456
12.391748 52.229801 41.270249 171.401515 -39.450742 -1.912274 4.020380 22.836234 1.788104 0.440283 3.339593 0.370975 0.773870 5.400197 0.602284 3.151580 19.166479 2.542300 -1.760325 12.454450 -2.065687 -2.518244 -12.648824 -3.179389 -3.983346 -2.316211 -2.605543 0.643236 -12.120280 3.079176 -72.699798 -67.345925 85.316758 -3.197008 -0.443809 -5.366757 -4.801932 -0.042351 -0.446305 2.768887 -11.836387 -2.822355 81.620300 -76.316889 -99.392796 -4.693938 -4.296741 17.006779 -2.600630 -42.329184 2.893160 124.898146 85.228615 128.265185 -2.684850 -9.621111 -1.429973 0.503582 -1.071406 0.236442 1.090211 -38.268511 5.764307 70.215213 82.083666 60.250601 -6.483239 -11.661728 8.945884 0.600865 1.491462 0.264019
